<svg xmlns="http://www.w3.org/2000/svg" viewBox="0 0 24 24" fill="none">
  <path d="M12 8.5a3.5 3.5 0 1 0 0 7 3.5 3.5 0 0 0 0-7z" stroke="currentColor" stroke-width="1.7"/>
  <path d="M19 12a7.4 7.4 0 0 0-.1-1.2l2-1.5-2-3.4-2.4 1a7.6 7.6 0 0 0-2-1.1L14.2 3h-4.4l-.4 2.8a7.6 7.6 0 0 0-2 1.1L5 5.9l-2 3.4 2 1.5A7.4 7.4 0 0 0 5 12c0 .4 0 .8.1 1.2l-2 1.5 2 3.4 2.4-1a7.6 7.6 0 0 0 2 1.1l.3 2.8h4.4l.4-2.8a7.6 7.6 0 0 0 2-1.1l2.4 1 2-3.4-2-1.5c0-.4.1-.8.1-1.2z" stroke="currentColor" stroke-width="1.4" stroke-linejoin="round"/>
</svg>
